<?xml version="1.0" encoding="utf-8"?>
<!-- Generator: Adobe Illustrator 16.0.0, SVG Export Plug-In . SVG Version: 6.00 Build 0)  -->
<!DOCTYPE svg PUBLIC "-//W3C//DTD SVG 1.1//EN" "http://www.w3.org/Graphics/SVG/1.1/DTD/svg11.dtd">
<svg version="1.1" id="Layer_1" xmlns="http://www.w3.org/2000/svg" xmlns:xlink="http://www.w3.org/1999/xlink" x="0px" y="0px"
	 width="148px" height="1090px" viewBox="76 55 148 1090" enable-background="new 76 55 148 1090" xml:space="preserve">
<line fill="none" stroke="#231F20" stroke-width="4" stroke-miterlimit="10" x1="150.796" y1="55" x2="150.796" y2="1141.924"/>
<text transform="matrix(-6.123234e-17 1 -1 -6.123234e-17 173.7949 55)" fill="#231F20" font-family="'CalibreRegular'" font-size="63">E</text>
<text transform="matrix(-6.123234e-17 1 -1 -6.123234e-17 173.7949 87.0039)" fill="#231F20" font-family="'CalibreRegular'" font-size="63">emplein </text>
<text transform="matrix(-6.123234e-17 1 -1 -6.123234e-17 173.7949 292.4443)" fill="#231F20" font-family="'CalibreRegular'" font-size="63">7</text>
<text transform="matrix(-6.123234e-17 1 -1 -6.123234e-17 173.7949 320.9189)" fill="#231F20" font-family="'CalibreRegular'" font-size="63" letter-spacing="-2">7</text>
<text transform="matrix(-6.123234e-17 1 -1 -6.123234e-17 173.7949 345.1729)" fill="#231F20" font-family="'CalibreRegular'" font-size="63">, (</text>
<text transform="matrix(-6.123234e-17 1 -1 -6.123234e-17 173.7949 390.0908)" fill="#231F20" font-family="'CalibreRegular'" font-size="63">E</text>
<text transform="matrix(-6.123234e-17 1 -1 -6.123234e-17 173.7949 422.0947)" fill="#231F20" font-family="'CalibreRegular'" font-size="63">emhui</text>
<text transform="matrix(-6.123234e-17 1 -1 -6.123234e-17 173.7949 570.7109)" fill="#231F20" font-family="'CalibreRegular'" font-size="63">s</text>
<text transform="matrix(-6.123234e-17 1 -1 -6.123234e-17 173.7949 596.4141)" fill="#231F20" font-family="'CalibreRegular'" font-size="63">)  </text>
<text transform="matrix(-6.123234e-17 1 -1 -6.123234e-17 173.7949 644.4824)" fill="#231F20" font-family="'CalibreRegular'" font-size="63">3</text>
<text transform="matrix(-6.123234e-17 1 -1 -6.123234e-17 173.7949 674.0918)" fill="#231F20" font-family="'CalibreRegular'" font-size="63">8</text>
<text transform="matrix(-6.123234e-17 1 -1 -6.123234e-17 173.7949 704.584)" fill="#231F20" font-family="'CalibreRegular'" font-size="63">1</text>
<text transform="matrix(-6.123234e-17 1 -1 -6.123234e-17 173.7949 725.5)" fill="#231F20" font-family="'CalibreRegular'" font-size="63">2 EA  Ame</text>
<text transform="matrix(-6.123234e-17 1 -1 -6.123234e-17 173.7949 977.5586)" fill="#231F20" font-family="'CalibreRegular'" font-size="63">r</text>
<text transform="matrix(-6.123234e-17 1 -1 -6.123234e-17 173.7949 997.5918)" fill="#231F20" font-family="'CalibreRegular'" font-size="63">s</text>
<text transform="matrix(-6.123234e-17 1 -1 -6.123234e-17 173.7949 1023.6738)" fill="#231F20" font-family="'CalibreRegular'" font-size="63">f</text>
<text transform="matrix(-6.123234e-17 1 -1 -6.123234e-17 173.7949 1041.502)" fill="#231F20" font-family="'CalibreRegular'" font-size="63">o</text>
<text transform="matrix(-6.123234e-17 1 -1 -6.123234e-17 173.7949 1071.7402)" fill="#231F20" font-family="'CalibreRegular'" font-size="63">ort</text>
<text transform="matrix(-6.123234e-17 1 -1 -6.123234e-17 89.8164 55)" fill="#231F20" font-family="'CalibreRegular'" font-size="63">Openingstijden di t/m zo 11-17 uur</text>
</svg>