<?xml version="1.0" encoding="utf-8"?>
<!-- Generator: Adobe Illustrator 16.0.0, SVG Export Plug-In . SVG Version: 6.00 Build 0)  -->
<!DOCTYPE svg PUBLIC "-//W3C//DTD SVG 1.1//EN" "http://www.w3.org/Graphics/SVG/1.1/DTD/svg11.dtd">
<svg version="1.1" id="Layer_1" xmlns="http://www.w3.org/2000/svg" xmlns:xlink="http://www.w3.org/1999/xlink" x="0px" y="0px"
	 width="153.36px" height="1295.582px" viewBox="0 0 153.36 1295.582" enable-background="new 0 0 153.36 1295.582"
	 xml:space="preserve">
<g>
	<rect x="74.298" fill="#231F20" width="4" height="1294"/>
</g>
<g enable-background="new    ">
	<path fill="#231F20" d="M37.369,2.52c12.602,0,22.052,9.451,22.052,22.051c0,12.664-9.45,22.051-22.052,22.051
		c-12.601,0-22.051-9.388-22.051-22.051C15.318,11.971,24.769,2.52,37.369,2.52z M37.369,40.952c9.451,0,16.382-6.93,16.382-16.381
		c0-9.45-6.931-16.381-16.382-16.381c-9.45,0-16.381,6.931-16.381,16.381C20.988,34.022,27.919,40.952,37.369,40.952z"/>
	<path fill="#231F20" d="M46.82,53.55v5.418h-4.536c3.465,2.583,5.292,6.426,5.292,11.088c0,8.947-6.805,15.184-16.507,15.184
		s-16.507-6.237-16.507-15.184c0-4.473,1.764-8.127,5.355-11.088h-17.2V53.55H46.82z M31.069,79.634
		c6.931,0,11.467-4.158,11.467-10.521s-4.474-10.521-11.467-10.521s-11.467,4.158-11.467,10.521S24.139,79.634,31.069,79.634z"/>
	<path fill="#231F20" d="M47.576,104.581c0,9.892-7.183,15.121-16.507,15.121h-1.638V94.5h-0.063
		c-6.427,0.315-9.766,4.977-9.766,10.333c0,4.599,2.269,7.812,4.852,10.018l-4.222,2.835c-2.835-2.52-5.67-6.741-5.67-12.601
		c0-9.514,6.3-16.066,16.255-16.066C40.079,89.019,47.576,95.067,47.576,104.581z M42.536,104.644c0-5.922-3.528-9.136-8.758-9.892
		v19.027C39.008,113.275,42.536,110.314,42.536,104.644z"/>
	<path fill="#231F20" d="M46.82,126v5.229h-4.852c3.844,2.331,5.607,6.048,5.607,10.521c0,7.435-4.914,11.782-13.294,11.782H15.318
		v-5.544h18.775c5.418,0,8.442-2.772,8.442-7.75c0-5.859-4.222-8.82-12.538-8.82h-14.68V126H46.82z"/>
	<path fill="#231F20" d="M15.318,209.791v-5.418h4.536c-3.465-2.583-5.292-6.426-5.292-11.089c0-8.946,6.805-15.184,16.507-15.184
		s16.507,6.237,16.507,15.184c0,4.474-1.764,8.127-5.355,11.089h17.2v5.418H15.318z M31.069,183.708
		c-6.931,0-11.467,4.158-11.467,10.521s4.474,10.521,11.467,10.521s11.467-4.158,11.467-10.521S38,183.708,31.069,183.708z"/>
	<path fill="#231F20" d="M15.318,224.342v-5.418H46.82v5.418H15.318z M55.893,217.349c2.521,0,4.284,1.764,4.284,4.284
		c0,2.52-1.764,4.284-4.284,4.284s-4.284-1.764-4.284-4.284C51.608,219.113,53.372,217.349,55.893,217.349z"/>
	<path fill="#231F20" d="M15.003,263.213c0-5.733,2.458-8.694,9.136-8.694h17.956v-6.238h4.726v6.238h8.442v5.418H46.82v8.632
		h-4.726v-8.632H23.824c-2.395,0-3.78,0.945-3.78,3.591c0,2.016,0.188,3.402,0.504,5.104H15.76
		C15.318,266.993,15.003,265.229,15.003,263.213z"/>
	<path fill="#231F20" d="M59.736,306.872L12.168,274.74l2.835-3.906l47.568,32.132L59.736,306.872z"/>
	<path fill="#231F20" d="M47.576,342.279c0,8.064-4.788,12.223-14.113,12.223H15.318v-5.48h18.838c5.481,0,8.38-2.521,8.38-7.309
		c0-6.237-4.158-9.325-12.538-9.325h-14.68v-5.418h18.838c5.481,0,8.38-2.583,8.38-7.435c0-6.111-4.158-9.136-12.538-9.136h-14.68
		v-5.418H46.82v5.229h-5.04c3.969,2.016,5.796,5.544,5.796,10.018c0,4.914-2.143,8.442-6.237,10.332
		C45.623,333.396,47.576,337.051,47.576,342.279z"/>
	<path fill="#231F20" d="M41.969,403.261l-21.61-17.515v18.146h-5.04v-24.824h4.852l21.61,17.516v-16.948h5.04v23.626H41.969z"/>
	<path fill="#231F20" d="M47.576,423.548c0,9.45-7.057,16.507-16.507,16.507s-16.507-7.057-16.507-16.507
		c0-9.451,7.057-16.508,16.507-16.508S47.576,414.097,47.576,423.548z M42.347,423.548c0-6.553-4.725-10.9-11.277-10.9
		s-11.277,4.348-11.277,10.9c0,6.552,4.725,10.899,11.277,10.899S42.347,430.1,42.347,423.548z"/>
	<path fill="#231F20" d="M15.318,482.768v-5.671h35.723l-10.458-10.458l4.032-3.906l14.806,14.806v5.229H15.318z"/>
	<path fill="#231F20" d="M15.318,509.731v-5.671h35.723l-10.458-10.458l4.032-3.906l14.806,14.806v5.229H15.318z"/>
	<path fill="#231F20" d="M31.951,551.185v-29.486h5.671v29.486H31.951z"/>
	<path fill="#231F20" d="M15.318,575.628v-5.671h35.723l-10.458-10.458l4.032-3.906l14.806,14.806v5.229H15.318z"/>
	<path fill="#231F20" d="M53.751,605.805v-22.618h5.67v29.17h-5.418l-38.685-19.972v-6.363L53.751,605.805z"/>
	<path fill="#231F20" d="M15.318,646.377v-5.229h4.536c-3.528-2.457-5.292-5.355-5.292-10.08c0-8.821,5.796-11.782,13.608-11.782
		H46.82v5.544H28.171c-4.978,0-8.568,1.449-8.568,7.183c0,7.183,5.923,8.946,12.538,8.946h14.68v5.419H15.318z"/>
	<path fill="#231F20" d="M15.318,682.286v-5.229h4.536c-3.528-2.457-5.292-5.355-5.292-10.08c0-8.821,5.796-11.782,13.608-11.782
		H46.82v5.544H28.171c-4.978,0-8.568,1.449-8.568,7.183c0,7.183,5.923,8.946,12.538,8.946h14.68v5.419H15.318z"/>
	<path fill="#231F20" d="M47.576,705.848c0,1.071-0.126,2.079-0.315,3.087h-5.733c0.253-1.071,0.379-2.016,0.379-3.15
		c0-7.057-4.789-9.262-11.908-9.262h-14.68v-5.418H46.82v5.229h-4.726C45.561,698.287,47.576,701.438,47.576,705.848z"/>
</g>
<g enable-background="new    ">
	<path fill="#231F20" d="M143.421,5.04v27.092h-5.67V10.71h-13.546v21.421h-5.671V10.71h-13.546v21.421h-5.67V5.04H143.421z"/>
	<path fill="#231F20" d="M131.576,51.787c0,9.892-7.183,15.121-16.507,15.121h-1.638V41.707h-0.063
		c-6.427,0.315-9.766,4.977-9.766,10.333c0,4.599,2.269,7.812,4.852,10.018l-4.222,2.835c-2.835-2.52-5.67-6.741-5.67-12.601
		c0-9.514,6.3-16.066,16.255-16.066C124.079,36.225,131.576,42.273,131.576,51.787z M126.536,51.85c0-5.922-3.528-9.136-8.758-9.892
		v19.027C123.008,60.481,126.536,57.521,126.536,51.85z"/>
	<path fill="#231F20" d="M131.576,110.504c0,8.064-4.788,12.223-14.113,12.223H99.318v-5.481h18.838c5.481,0,8.38-2.52,8.38-7.309
		c0-6.237-4.158-9.324-12.538-9.324h-14.68v-5.418h18.838c5.481,0,8.38-2.583,8.38-7.435c0-6.111-4.158-9.135-12.538-9.135h-14.68
		v-5.418h31.502v5.229h-5.04c3.969,2.016,5.796,5.544,5.796,10.018c0,4.914-2.143,8.442-6.237,10.333
		C129.623,101.621,131.576,105.275,131.576,110.504z"/>
	<path fill="#231F20" d="M130.82,131.544v5.418h-4.536c3.465,2.583,5.292,6.426,5.292,11.088c0,8.947-6.805,15.184-16.507,15.184
		s-16.507-6.237-16.507-15.184c0-4.473,1.764-8.127,5.355-11.088h-17.2v-5.418H130.82z M115.069,157.627
		c6.931,0,11.467-4.158,11.467-10.521s-4.474-10.521-11.467-10.521s-11.467,4.158-11.467,10.521S108.139,157.627,115.069,157.627z"
		/>
	<path fill="#231F20" d="M99.318,175.077v-5.544h44.103v5.544H99.318z"/>
	<path fill="#231F20" d="M131.576,196.938c0,9.892-7.183,15.121-16.507,15.121h-1.638v-25.201h-0.063
		c-6.427,0.315-9.766,4.977-9.766,10.333c0,4.599,2.269,7.812,4.852,10.018l-4.222,2.835c-2.835-2.52-5.67-6.741-5.67-12.601
		c0-9.514,6.3-16.066,16.255-16.066C124.079,181.376,131.576,187.425,131.576,196.938z M126.536,197.001
		c0-5.922-3.528-9.136-8.758-9.892v19.027C123.008,205.633,126.536,202.672,126.536,197.001z"/>
	<path fill="#231F20" d="M99.318,224.091v-5.418h31.502v5.418H99.318z M139.893,217.098c2.521,0,4.284,1.764,4.284,4.284
		c0,2.52-1.764,4.284-4.284,4.284s-4.284-1.764-4.284-4.284C135.608,218.861,137.372,217.098,139.893,217.098z"/>
	<path fill="#231F20" d="M130.82,233.225v5.229h-4.852c3.844,2.331,5.607,6.048,5.607,10.521c0,7.435-4.914,11.782-13.294,11.782
		H99.318v-5.544h18.775c5.418,0,8.442-2.772,8.442-7.75c0-5.859-4.222-8.82-12.538-8.82h-14.68v-5.418H130.82z"/>
	<path fill="#231F20" d="M137.751,308.573v-22.618h5.67v29.171h-5.418l-38.685-19.972v-6.363L137.751,308.573z"/>
	<path fill="#231F20" d="M137.751,342.782v-22.618h5.67v29.17h-5.418l-38.685-19.972v-6.363L137.751,342.782z"/>
	<path fill="#231F20" d="M106.249,368.233l-19.531-11.025l2.394-4.41l19.657,10.962L106.249,368.233z"/>
	<path fill="#231F20" d="M149.091,406.662l-3.275,3.591c-7.498-6.741-15.625-10.27-26.777-10.27
		c-11.088,0-19.278,3.528-26.776,10.27l-3.276-3.591c7.75-7.623,18.523-11.971,30.053-11.971
		C130.568,394.691,141.342,399.039,149.091,406.662z"/>
	<path fill="#231F20" d="M143.421,415.607v27.092h-5.67v-21.421h-13.546v21.421h-5.671v-21.421h-13.546v21.421h-5.67v-27.092
		H143.421z"/>
	<path fill="#231F20" d="M131.576,462.354c0,9.892-7.183,15.121-16.507,15.121h-1.638v-25.202h-0.063
		c-6.427,0.315-9.766,4.978-9.766,10.333c0,4.6,2.269,7.812,4.852,10.018l-4.222,2.835c-2.835-2.521-5.67-6.741-5.67-12.601
		c0-9.514,6.3-16.066,16.255-16.066C124.079,446.792,131.576,452.841,131.576,462.354z M126.536,462.417
		c0-5.922-3.528-9.135-8.758-9.892v19.027C123.008,471.049,126.536,468.088,126.536,462.417z"/>
	<path fill="#231F20" d="M131.576,521.071c0,8.064-4.788,12.223-14.113,12.223H99.318v-5.48h18.838c5.481,0,8.38-2.521,8.38-7.309
		c0-6.237-4.158-9.325-12.538-9.325h-14.68v-5.418h18.838c5.481,0,8.38-2.583,8.38-7.435c0-6.111-4.158-9.136-12.538-9.136h-14.68
		v-5.418h31.502v5.229h-5.04c3.969,2.016,5.796,5.544,5.796,10.018c0,4.914-2.143,8.442-6.237,10.332
		C129.623,512.188,131.576,515.843,131.576,521.071z"/>
	<path fill="#231F20" d="M126.032,547.529c3.906,2.395,5.544,5.923,5.544,10.27c0,7.561-4.978,11.845-13.734,11.845H99.318V564.1
		h18.775c5.292,0,8.442-2.772,8.442-7.371c0-6.237-4.096-9.199-12.538-9.199h-14.68v-5.418h44.103v5.418H126.032z"/>
	<path fill="#231F20" d="M99.318,605.554v-5.229h4.536c-3.528-2.457-5.292-5.355-5.292-10.08c0-8.821,5.796-11.782,13.608-11.782
		h18.649v5.544h-18.649c-4.978,0-8.568,1.449-8.568,7.183c0,7.183,5.923,8.946,12.538,8.946h14.68v5.419H99.318z"/>
	<path fill="#231F20" d="M99.318,620.104v-5.418h31.502v5.418H99.318z M139.893,613.111c2.521,0,4.284,1.764,4.284,4.284
		c0,2.52-1.764,4.284-4.284,4.284s-4.284-1.765-4.284-4.284C135.608,614.875,137.372,613.111,139.893,613.111z"/>
	<path fill="#231F20" d="M131.576,640.012c0,5.733-2.269,9.892-6.805,12.412l-2.835-4.474c3.024-1.575,4.6-4.347,4.6-8.19
		c0-3.654-1.449-6.174-4.096-6.174c-2.709,0-3.402,2.646-4.599,7.497c-1.639,6.615-3.024,11.341-9.451,11.341
		c-6.174,0-9.828-4.41-9.828-12.097c0-6.553,2.709-11.656,7.371-13.924l2.835,4.474c-3.339,1.638-5.166,4.977-5.166,9.639
		c0,4.222,1.512,6.49,4.41,6.49c2.961,0,3.592-2.395,4.662-6.994c1.387-5.859,3.024-11.845,9.577-11.845
		C127.922,628.167,131.576,632.703,131.576,640.012z"/>
	<path fill="#231F20" d="M119.038,668.614c-11.529,0-22.303-4.348-30.053-11.971l3.276-3.591c7.498,6.741,15.688,10.27,26.776,10.27
		c11.152,0,19.279-3.528,26.777-10.27l3.275,3.591C141.342,664.267,130.568,668.614,119.038,668.614z"/>
	<path fill="#231F20" d="M143.421,707.044c0,6.993-5.104,12.79-12.475,12.79c-4.284,0-7.561-1.953-9.514-4.662
		c-2.079,2.961-5.418,4.662-9.702,4.662c-7.812,0-12.412-5.671-12.412-12.664c0-6.741,4.284-11.719,10.207-13.356l3.779,4.914
		c-4.914,0.945-8.316,4.096-8.316,8.506c0,3.843,2.584,6.93,6.868,6.93c4.221,0,6.552-3.023,6.741-6.552v-2.646h5.67v2.646
		c0.189,3.528,2.646,6.552,6.679,6.552c4.158,0,6.805-3.275,6.805-6.93c0-4.222-3.528-7.435-8.064-8.506l3.905-4.852
		C138.947,695.577,143.421,700.491,143.421,707.044z"/>
	<path fill="#231F20" d="M111.667,727.392c4.284,0,7.497,1.764,9.702,4.978c2.079-3.024,5.167-4.978,9.703-4.978
		c7.561,0,12.349,5.481,12.349,13.104c0,7.624-4.852,13.104-12.223,13.104c-4.158,0-7.371-1.764-9.829-5.229
		c-2.457,3.465-5.67,5.229-9.828,5.229c-7.371,0-12.223-5.48-12.223-13.104C99.318,732.873,104.106,727.392,111.667,727.392z
		 M111.667,747.931c4.41,0,6.867-3.528,6.867-7.371c0-3.844-2.457-7.498-6.867-7.498c-4.032,0-6.679,3.088-6.679,7.498
		S107.635,747.931,111.667,747.931z M131.072,747.931c4.032,0,6.679-2.961,6.679-7.371s-2.646-7.498-6.679-7.498
		c-4.41,0-6.867,3.654-6.867,7.498C124.205,744.402,126.662,747.931,131.072,747.931z"/>
	<path fill="#231F20" d="M99.318,778.676v-5.671h35.723l-10.458-10.458l4.032-3.906l14.806,14.806v5.229H99.318z"/>
	<path fill="#231F20" d="M143.421,801.922c0,7.749-5.796,13.924-13.608,13.924c-4.411,0-8.316-1.953-10.711-4.285l-14.113-13.734
		v18.02h-5.67V789.32h4.978l18.774,18.271c1.639,1.575,3.97,2.583,6.49,2.583c4.851,0,8.19-3.654,8.19-8.001
		c0-4.41-3.402-8.002-8.064-9.766l3.969-4.6C138.821,790.392,143.421,795.054,143.421,801.922z"/>
	<path fill="#231F20" d="M143.421,842.933v27.092h-5.67v-21.421h-13.546v21.421h-5.671v-21.421h-13.546v21.421h-5.67v-27.092
		H143.421z"/>
	<path fill="#231F20" d="M107.698,910.974V884.26l-8.38-3.906v-6.237l44.103,20.539v5.923l-44.103,20.539v-6.237L107.698,910.974z
		 M113.368,908.391l23.186-10.774l-23.186-10.773V908.391z"/>
	<path fill="#231F20" d="M106.249,938.125L86.718,927.1l2.394-4.41l19.657,10.962L106.249,938.125z"/>
	<path fill="#231F20" d="M107.698,997.66v-26.714l-8.38-3.906v-6.237l44.103,20.539v5.923l-44.103,20.539v-6.237L107.698,997.66z
		 M113.368,995.077l23.186-10.774l-23.186-10.773V995.077z"/>
	<path fill="#231F20" d="M131.576,1050.139c0,8.064-4.788,12.223-14.113,12.223H99.318v-5.48h18.838c5.481,0,8.38-2.521,8.38-7.309
		c0-6.237-4.158-9.325-12.538-9.325h-14.68v-5.418h18.838c5.481,0,8.38-2.583,8.38-7.435c0-6.111-4.158-9.136-12.538-9.136h-14.68
		v-5.418h31.502v5.229h-5.04c3.969,2.016,5.796,5.544,5.796,10.018c0,4.914-2.143,8.442-6.237,10.332
		C129.623,1041.256,131.576,1044.91,131.576,1050.139z"/>
	<path fill="#231F20" d="M131.576,1084.221c0,9.892-7.183,15.121-16.507,15.121h-1.638v-25.202h-0.063
		c-6.427,0.315-9.766,4.978-9.766,10.333c0,4.6,2.269,7.812,4.852,10.018l-4.222,2.835c-2.835-2.521-5.67-6.741-5.67-12.601
		c0-9.514,6.3-16.066,16.255-16.066C124.079,1068.658,131.576,1074.707,131.576,1084.221z M126.536,1084.283
		c0-5.922-3.528-9.135-8.758-9.892v19.027C123.008,1092.915,126.536,1089.954,126.536,1084.283z"/>
	<path fill="#231F20" d="M131.576,1120.383c0,1.071-0.126,2.079-0.315,3.087h-5.733c0.253-1.071,0.379-2.016,0.379-3.15
		c0-7.057-4.789-9.262-11.908-9.262h-14.68v-5.418h31.502v5.229h-4.726C129.561,1112.822,131.576,1115.973,131.576,1120.383z"/>
	<path fill="#231F20" d="M131.576,1139.911c0,5.733-2.269,9.892-6.805,12.412l-2.835-4.474c3.024-1.575,4.6-4.347,4.6-8.19
		c0-3.654-1.449-6.174-4.096-6.174c-2.709,0-3.402,2.646-4.599,7.497c-1.639,6.615-3.024,11.341-9.451,11.341
		c-6.174,0-9.828-4.41-9.828-12.097c0-6.553,2.709-11.656,7.371-13.924l2.835,4.473c-3.339,1.639-5.166,4.978-5.166,9.64
		c0,4.222,1.512,6.489,4.41,6.489c2.961,0,3.592-2.394,4.662-6.993c1.387-5.859,3.024-11.845,9.577-11.845
		C127.922,1128.066,131.576,1132.603,131.576,1139.911z"/>
	<path fill="#231F20" d="M99.318,1167.316v-5.419h26.776v-7.056h4.726v7.056h1.764c8.442,0,11.404,4.159,11.404,10.144
		c0,1.765-0.189,3.214-0.441,4.852h-4.978c0.252-1.575,0.441-2.898,0.441-4.158c0-3.843-1.575-5.418-6.427-5.418h-1.764v9.136
		h-4.726v-9.136H99.318z"/>
	<path fill="#231F20" d="M131.576,1194.029c0,9.45-7.057,16.507-16.507,16.507s-16.507-7.057-16.507-16.507
		c0-9.451,7.057-16.508,16.507-16.508S131.576,1184.578,131.576,1194.029z M126.347,1194.029c0-6.553-4.725-10.9-11.277-10.9
		s-11.277,4.348-11.277,10.9c0,6.552,4.725,10.899,11.277,10.899S126.347,1200.581,126.347,1194.029z"/>
	<path fill="#231F20" d="M131.576,1230.821c0,9.45-7.057,16.507-16.507,16.507s-16.507-7.057-16.507-16.507
		c0-9.451,7.057-16.508,16.507-16.508S131.576,1221.37,131.576,1230.821z M126.347,1230.821c0-6.553-4.725-10.9-11.277-10.9
		s-11.277,4.348-11.277,10.9c0,6.552,4.725,10.899,11.277,10.899S126.347,1237.373,126.347,1230.821z"/>
	<path fill="#231F20" d="M131.576,1268.369c0,1.071-0.126,2.079-0.315,3.087h-5.733c0.253-1.071,0.379-2.016,0.379-3.15
		c0-7.057-4.789-9.262-11.908-9.262h-14.68v-5.418h31.502v5.229h-4.726C129.561,1260.809,131.576,1263.959,131.576,1268.369z"/>
	<path fill="#231F20" d="M99.003,1288.591c0-5.733,2.458-8.694,9.136-8.694h17.956v-6.237h4.726v6.237h8.442v5.418h-8.442v8.632
		h-4.726v-8.632h-18.271c-2.395,0-3.78,0.945-3.78,3.592c0,2.016,0.188,3.401,0.504,5.103H99.76
		C99.318,1292.371,99.003,1290.606,99.003,1288.591z"/>
</g>
</svg>